<svg xmlns="http://www.w3.org/2000/svg" viewBox="0 0 1920 1080" width="1920" height="1080">
  <defs>
    <linearGradient id="bg" x1="0" y1="0" x2="0" y2="1"><stop offset="0%" stop-color="#1a1b26"/><stop offset="100%" stop-color="#16161e"/></linearGradient>
    <filter id="glow"><feGaussianBlur stdDeviation="3" result="blur"/><feMerge><feMergeNode in="blur"/><feMergeNode in="SourceGraphic"/></feMerge></filter>
  </defs>
  <rect width="1920" height="1080" fill="url(#bg)"/>

  <!-- Header -->
  <rect x="0" y="0" width="1920" height="50" fill="#1f2335" stroke="#3b4261" stroke-width="1"/>
  <text x="30" y="33" fill="#7dcfff" font-family="monospace" font-size="20" font-weight="bold">ARC Composer</text>
  <text x="200" y="33" fill="#565f89" font-family="monospace" font-size="14">Visual SwarmGraph Builder</text>
  <rect x="1500" y="12" width="80" height="28" rx="6" fill="#73daca" opacity="0.2" stroke="#73daca" stroke-width="1"/>
  <text x="1520" y="31" fill="#73daca" font-family="monospace" font-size="12">Validate</text>
  <rect x="1600" y="12" width="80" height="28" rx="6" fill="#7dcfff" opacity="0.2" stroke="#7dcfff" stroke-width="1"/>
  <text x="1620" y="31" fill="#7dcfff" font-family="monospace" font-size="12">Export</text>
  <rect x="1700" y="12" width="80" height="28" rx="6" fill="#bb9af7" opacity="0.2" stroke="#bb9af7" stroke-width="1"/>
  <text x="1720" y="31" fill="#bb9af7" font-family="monospace" font-size="12">Run</text>
  <text x="1800" y="31" fill="#7aa2f7" font-family="monospace" font-size="14">Zoom: 100%</text>

  <!-- Left: Tool Palette -->
  <rect x="20" y="70" width="200" height="980" rx="8" fill="#1f2335" stroke="#3b4261" stroke-width="1"/>
  <text x="40" y="100" fill="#c0caf5" font-family="monospace" font-size="16" font-weight="bold">Palette</text>

  <rect x="40" y="120" width="160" height="40" rx="6" fill="#24283b" stroke="#3b4261" stroke-width="1"/>
  <text x="60" y="145" fill="#e0af68" font-family="monospace" font-size="14">👤 Agent</text>
  <rect x="40" y="170" width="160" height="40" rx="6" fill="#24283b" stroke="#3b4261" stroke-width="1"/>
  <text x="60" y="195" fill="#7dcfff" font-family="monospace" font-size="14">🔧 Tool</text>
  <rect x="40" y="220" width="160" height="40" rx="6" fill="#24283b" stroke="#3b4261" stroke-width="1"/>
  <text x="60" y="245" fill="#73daca" font-family="monospace" font-size="14">❓ Condition</text>
  <rect x="40" y="270" width="160" height="40" rx="6" fill="#24283b" stroke="#3b4261" stroke-width="1"/>
  <text x="60" y="295" fill="#bb9af7" font-family="monospace" font-size="14">🔄 Loop</text>
  <rect x="40" y="320" width="160" height="40" rx="6" fill="#24283b" stroke="#3b4261" stroke-width="1"/>
  <text x="60" y="345" fill="#f7768e" font-family="monospace" font-size="14">🤝 Consensus</text>

  <!-- Center: Canvas -->
  <rect x="240" y="70" width="1100" height="980" rx="8" fill="#1f2335" stroke="#3b4261" stroke-width="1"/>

  <!-- Grid dots -->
  <g opacity="0.2">
    <circle cx="300" cy="150" r="1" fill="#3b4261"/><circle cx="340" cy="150" r="1" fill="#3b4261"/><circle cx="380" cy="150" r="1" fill="#3b4261"/><circle cx="420" cy="150" r="1" fill="#3b4261"/>
    <circle cx="300" cy="190" r="1" fill="#3b4261"/><circle cx="340" cy="190" r="1" fill="#3b4261"/><circle cx="380" cy="190" r="1" fill="#3b4261"/><circle cx="420" cy="190" r="1" fill="#3b4261"/>
  </g>

  <!-- Edges (handoff + parallel) -->
  <path d="M 790 300 L 590 450" stroke="#7dcfff" stroke-width="2" fill="none" filter="url(#glow)"/>
  <text x="640" y="370" fill="#7dcfff" font-family="monospace" font-size="10">handoff</text>
  <path d="M 790 300 L 990 450" stroke="#7dcfff" stroke-width="2" fill="none" filter="url(#glow)"/>
  <text x="840" y="370" fill="#7dcfff" font-family="monospace" font-size="10">parallel</text>
  <path d="M 790 300 L 590 650" stroke="#7dcfff" stroke-width="2" fill="none" filter="url(#glow)"/>
  <text x="640" y="470" fill="#7dcfff" font-family="monospace" font-size="10">parallel</text>
  <path d="M 790 300 L 990 650" stroke="#7dcfff" stroke-width="2" fill="none" filter="url(#glow)"/>
  <text x="840" y="470" fill="#7dcfff" font-family="monospace" font-size="10">parallel</text>
  <path d="M 590 520 L 790 650" stroke="#e0af68" stroke-width="2" fill="none" filter="url(#glow)"/>
  <text x="640" y="590" fill="#e0af68" font-family="monospace" font-size="10">consensus</text>
  <path d="M 990 520 L 790 650" stroke="#e0af68" stroke-width="2" fill="none" filter="url(#glow)"/>
  <path d="M 790 520 L 790 650" stroke="#e0af68" stroke-width="2" fill="none" filter="url(#glow)"/>
  <path d="M 590 520 L 990 520" stroke="#e0af68" stroke-width="2" fill="none" filter="url(#glow)" stroke-dasharray="4 2"/>

  <!-- Queen Node (hexagon) -->
  <polygon points="790,260 830,285 830,315 790,340 750,315 750,285" fill="#e0af68" opacity="0.2" stroke="#e0af68" stroke-width="2" filter="url(#glow)"/>
  <text x="790" y="300" fill="#e0af68" font-family="monospace" font-size="12" text-anchor="middle" font-weight="bold">Queen</text>
  <text x="790" y="315" fill="#e0af68" font-family="monospace" font-size="10" text-anchor="middle">Coordinator</text>

  <!-- Researcher Node -->
  <rect x="510" y="450" width="160" height="80" rx="8" fill="#7aa2f7" opacity="0.2" stroke="#7aa2f7" stroke-width="2" filter="url(#glow)"/>
  <text x="590" y="480" fill="#7aa2f7" font-family="monospace" font-size="14" text-anchor="middle" font-weight="bold">Researcher</text>
  <text x="590" y="500" fill="#7aa2f7" font-family="monospace" font-size="10" text-anchor="middle">Claude Haiku 4.5</text>
  <text x="590" y="515" fill="#7aa2f7" font-family="monospace" font-size="10" text-anchor="middle">Model: fast</text>

  <!-- Coder Node -->
  <rect x="910" y="450" width="160" height="80" rx="8" fill="#73daca" opacity="0.2" stroke="#73daca" stroke-width="2" filter="url(#glow)"/>
  <text x="990" y="480" fill="#73daca" font-family="monospace" font-size="14" text-anchor="middle" font-weight="bold">Coder</text>
  <text x="990" y="500" fill="#73daca" font-family="monospace" font-size="10" text-anchor="middle">Claude Sonnet 4.6</text>
  <text x="990" y="515" fill="#73daca" font-family="monospace" font-size="10" text-anchor="middle">Model: balanced</text>

  <!-- Reviewer Node -->
  <rect x="510" y="650" width="160" height="80" rx="8" fill="#bb9af7" opacity="0.2" stroke="#bb9af7" stroke-width="2" filter="url(#glow)"/>
  <text x="590" y="680" fill="#bb9af7" font-family="monospace" font-size="14" text-anchor="middle" font-weight="bold">Reviewer</text>
  <text x="590" y="700" fill="#bb9af7" font-family="monospace" font-size="10" text-anchor="middle">GPT-5.3</text>
  <text x="590" y="715" fill="#bb9af7" font-family="monospace" font-size="10" text-anchor="middle">Model: reasoning</text>

  <!-- Tester Node -->
  <rect x="910" y="650" width="160" height="80" rx="8" fill="#e0af68" opacity="0.2" stroke="#e0af68" stroke-width="2" filter="url(#glow)"/>
  <text x="990" y="680" fill="#e0af68" font-family="monospace" font-size="14" text-anchor="middle" font-weight="bold">Tester</text>
  <text x="990" y="700" fill="#e0af68" font-family="monospace" font-size="10" text-anchor="middle">DeepSeek V3</text>
  <text x="990" y="715" fill="#e0af68" font-family="monospace" font-size="10" text-anchor="middle">Model: cheap</text>

  <!-- Consensus Node -->
  <rect x="710" y="650" width="160" height="80" rx="8" fill="#f7768e" opacity="0.2" stroke="#f7768e" stroke-width="2" filter="url(#glow)"/>
  <text x="790" y="680" fill="#f7768e" font-family="monospace" font-size="14" text-anchor="middle" font-weight="bold">Consensus</text>
  <text x="790" y="700" fill="#f7768e" font-family="monospace" font-size="10" text-anchor="middle">Vote: 3/4</text>
  <text x="790" y="715" fill="#f7768e" font-family="monospace" font-size="10" text-anchor="middle">Threshold: 75%</text>

  <!-- Right: Properties Panel -->
  <rect x="1360" y="70" width="540" height="500" rx="8" fill="#1f2335" stroke="#3b4261" stroke-width="1"/>
  <text x="1380" y="100" fill="#c0caf5" font-family="monospace" font-size="16" font-weight="bold">Properties</text>
  <text x="1380" y="130" fill="#e0af68" font-family="monospace" font-size="14">Selected: Queen</text>

  <text x="1380" y="170" fill="#7aa2f7" font-family="monospace" font-size="14">Model</text>
  <rect x="1380" y="185" width="500" height="30" rx="4" fill="#24283b" stroke="#3b4261" stroke-width="1"/>
  <text x="1390" y="205" fill="#c0caf5" font-family="monospace" font-size="14">Claude Sonnet 4.6</text>

  <text x="1380" y="235" fill="#7aa2f7" font-family="monospace" font-size="14">System Prompt</text>
  <rect x="1380" y="250" width="500" height="100" rx="4" fill="#24283b" stroke="#3b4261" stroke-width="1"/>
  <text x="1390" y="270" fill="#c0caf5" font-family="monospace" font-size="12">You are the Queen agent. Coordinate the</text>
  <text x="1390" y="290" fill="#c0caf5" font-family="monospace" font-size="12">worker agents to complete the task. Hand</text>
  <text x="1390" y="310" fill="#c0caf5" font-family="monospace" font-size="12">off to Researcher, Coder, Reviewer, and</text>
  <text x="1390" y="330" fill="#c0caf5" font-family="monospace" font-size="12">Tester in parallel. Gather consensus.</text>

  <text x="1380" y="375" fill="#7aa2f7" font-family="monospace" font-size="14">Tools</text>
  <rect x="1380" y="390" width="20" height="20" rx="4" fill="#73daca" opacity="0.3"/>
  <text x="1410" y="405" fill="#c0caf5" font-family="monospace" font-size="12">☑ arc_swarmgraph_plan</text>
  <rect x="1380" y="420" width="20" height="20" rx="4" fill="#73daca" opacity="0.3"/>
  <text x="1410" y="435" fill="#c0caf5" font-family="monospace" font-size="12">☑ arc_swarmgraph_assess_risk</text>
  <rect x="1380" y="450" width="20" height="20" rx="4" fill="#73daca" opacity="0.3"/>
  <text x="1410" y="465" fill="#c0caf5" font-family="monospace" font-size="12">☑ arc_swarmgraph_consensus</text>

  <text x="1380" y="505" fill="#7aa2f7" font-family="monospace" font-size="14">Max Iterations</text>
  <rect x="1380" y="520" width="100" height="30" rx="4" fill="#24283b" stroke="#3b4261" stroke-width="1"/>
  <text x="1390" y="540" fill="#c0caf5" font-family="monospace" font-size="14">5</text>

  <!-- Bottom: Simulation + Code -->
  <rect x="1360" y="590" width="540" height="460" rx="8" fill="#1f2335" stroke="#3b4261" stroke-width="1"/>
  <text x="1380" y="620" fill="#c0caf5" font-family="monospace" font-size="16" font-weight="bold">Simulation</text>
  <rect x="1380" y="635" width="500" height="200" rx="4" fill="#24283b" stroke="#3b4261" stroke-width="1"/>
  <text x="1390" y="660" fill="#73daca" font-family="monospace" font-size="12">[14:32:01] Queen: Task received — "Build auth refactor"</text>
  <text x="1390" y="680" fill="#7dcfff" font-family="monospace" font-size="12">[14:32:02] Queen → Researcher (handoff)</text>
  <text x="1390" y="700" fill="#7dcfff" font-family="monospace" font-size="12">[14:32:02] Queen → Coder (parallel)</text>
  <text x="1390" y="720" fill="#7dcfff" font-family="monospace" font-size="12">[14:32:02] Queen → Reviewer (parallel)</text>
  <text x="1390" y="740" fill="#7dcfff" font-family="monospace" font-size="12">[14:32:02] Queen → Tester (parallel)</text>
  <text x="1390" y="760" fill="#73daca" font-family="monospace" font-size="12">[14:32:05] Researcher: Context gathered</text>
  <text x="1390" y="780" fill="#73daca" font-family="monospace" font-size="12">[14:32:08] Coder: 4 files modified</text>
  <text x="1390" y="800" fill="#e0af68" font-family="monospace" font-size="12">[14:32:10] Consensus: 87% agreement</text>

  <text x="1380" y="855" fill="#c0caf5" font-family="monospace" font-size="14" font-weight="bold">Generated Code</text>
  <rect x="1380" y="870" width="500" height="160" rx="4" fill="#24283b" stroke="#3b4261" stroke-width="1"/>
  <text x="1390" y="895" fill="#7aa2f7" font-family="monospace" font-size="12">from agent_runtime_cockpit.swarmgraph import Queen, Worker</text>
  <text x="1390" y="915" fill="#7dcfff" font-family="monospace" font-size="12">queen = Queen(model="claude-sonnet-4.6", ...)</text>
  <text x="1390" y="935" fill="#c0caf5" font-family="monospace" font-size="12">workers = [</text>
  <text x="1390" y="955" fill="#c0caf5" font-family="monospace" font-size="12">  Worker("researcher", model="claude-haiku-4.5"),</text>
  <text x="1390" y="975" fill="#c0caf5" font-family="monospace" font-size="12">  Worker("coder", model="claude-sonnet-4.6"), ...</text>
  <text x="1390" y="995" fill="#c0caf5" font-family="monospace" font-size="12">]</text>
  <text x="1390" y="1015" fill="#7dcfff" font-family="monospace" font-size="12">result = queen.orchestrate(workers, task="Build auth refactor")</text>
</svg>
